<mxfile host="app.diagrams.net" modified="2023-03-05T06:29:31.542Z" agent="5.0 (Macintosh; Intel Mac OS X 10_15_7) AppleWebKit/537.36 (KHTML, like Gecko) Chrome/109.0.0.0 Safari/537.36" etag="nFhrDAArCJUayLoZDNTa" version="21.0.2" type="github">
  <diagram name="Page-1" id="4Ok9CWtVcxssob9wytkE">
    <mxGraphModel dx="1257" dy="641" grid="1" gridSize="10" guides="1" tooltips="1" connect="1" arrows="1" fold="1" page="1" pageScale="1" pageWidth="850" pageHeight="1100" math="0" shadow="0">
      <root>
        <mxCell id="0" />
        <mxCell id="1" parent="0" />
        <mxCell id="HmQEeG5PGhDaiVwMXJu5-1" value="0" style="rounded=0;whiteSpace=wrap;html=1;" parent="1" vertex="1">
          <mxGeometry x="140" y="400" width="30" height="30" as="geometry" />
        </mxCell>
        <mxCell id="HmQEeG5PGhDaiVwMXJu5-2" value="0" style="rounded=0;whiteSpace=wrap;html=1;" parent="1" vertex="1">
          <mxGeometry x="170" y="400" width="30" height="30" as="geometry" />
        </mxCell>
        <mxCell id="HmQEeG5PGhDaiVwMXJu5-3" value="1" style="rounded=0;whiteSpace=wrap;html=1;fillColor=#d5e8d4;strokeColor=#82b366;" parent="1" vertex="1">
          <mxGeometry x="200" y="400" width="30" height="30" as="geometry" />
        </mxCell>
        <mxCell id="HmQEeG5PGhDaiVwMXJu5-4" value="0" style="rounded=0;whiteSpace=wrap;html=1;" parent="1" vertex="1">
          <mxGeometry x="230" y="400" width="30" height="30" as="geometry" />
        </mxCell>
        <mxCell id="HmQEeG5PGhDaiVwMXJu5-5" value="0" style="rounded=0;whiteSpace=wrap;html=1;" parent="1" vertex="1">
          <mxGeometry x="260" y="400" width="30" height="30" as="geometry" />
        </mxCell>
        <mxCell id="HmQEeG5PGhDaiVwMXJu5-6" value="0" style="rounded=0;whiteSpace=wrap;html=1;" parent="1" vertex="1">
          <mxGeometry x="290" y="400" width="30" height="30" as="geometry" />
        </mxCell>
        <mxCell id="HmQEeG5PGhDaiVwMXJu5-7" value="1" style="rounded=0;whiteSpace=wrap;html=1;fillColor=#d80073;strokeColor=#A50040;fontColor=#ffffff;" parent="1" vertex="1">
          <mxGeometry x="320" y="400" width="30" height="30" as="geometry" />
        </mxCell>
        <mxCell id="HmQEeG5PGhDaiVwMXJu5-8" value="0" style="rounded=0;whiteSpace=wrap;html=1;" parent="1" vertex="1">
          <mxGeometry x="350" y="400" width="30" height="30" as="geometry" />
        </mxCell>
        <mxCell id="HmQEeG5PGhDaiVwMXJu5-9" value="0" style="rounded=0;whiteSpace=wrap;html=1;" parent="1" vertex="1">
          <mxGeometry x="380" y="400" width="30" height="30" as="geometry" />
        </mxCell>
        <mxCell id="HmQEeG5PGhDaiVwMXJu5-10" value="0" style="rounded=0;whiteSpace=wrap;html=1;" parent="1" vertex="1">
          <mxGeometry x="410" y="400" width="30" height="30" as="geometry" />
        </mxCell>
        <mxCell id="HmQEeG5PGhDaiVwMXJu5-11" value="1" style="rounded=0;whiteSpace=wrap;html=1;fillColor=#dae8fc;strokeColor=#6c8ebf;" parent="1" vertex="1">
          <mxGeometry x="440" y="400" width="30" height="30" as="geometry" />
        </mxCell>
        <mxCell id="HmQEeG5PGhDaiVwMXJu5-12" value="0" style="rounded=0;whiteSpace=wrap;html=1;" parent="1" vertex="1">
          <mxGeometry x="470" y="400" width="30" height="30" as="geometry" />
        </mxCell>
        <mxCell id="HmQEeG5PGhDaiVwMXJu5-13" value="1" style="rounded=0;whiteSpace=wrap;html=1;fillColor=#d5e8d4;strokeColor=#82b366;" parent="1" vertex="1">
          <mxGeometry x="500" y="400" width="30" height="30" as="geometry" />
        </mxCell>
        <mxCell id="HmQEeG5PGhDaiVwMXJu5-14" value="0" style="rounded=0;whiteSpace=wrap;html=1;" parent="1" vertex="1">
          <mxGeometry x="530" y="400" width="30" height="30" as="geometry" />
        </mxCell>
        <mxCell id="HmQEeG5PGhDaiVwMXJu5-15" value="1" style="rounded=0;whiteSpace=wrap;html=1;fillColor=#dae8fc;strokeColor=#6c8ebf;" parent="1" vertex="1">
          <mxGeometry x="560" y="400" width="30" height="30" as="geometry" />
        </mxCell>
        <mxCell id="HmQEeG5PGhDaiVwMXJu5-16" value="0" style="rounded=0;whiteSpace=wrap;html=1;" parent="1" vertex="1">
          <mxGeometry x="590" y="400" width="30" height="30" as="geometry" />
        </mxCell>
        <mxCell id="HmQEeG5PGhDaiVwMXJu5-17" value="0" style="text;html=1;strokeColor=#E6E6E6;fillColor=none;align=center;verticalAlign=middle;whiteSpace=wrap;rounded=0;fontSize=10;fontStyle=0;fontColor=#8F8F8F;" parent="1" vertex="1">
          <mxGeometry x="140" y="430" width="30" height="30" as="geometry" />
        </mxCell>
        <mxCell id="HmQEeG5PGhDaiVwMXJu5-18" value="1" style="text;html=1;strokeColor=#E6E6E6;fillColor=none;align=center;verticalAlign=middle;whiteSpace=wrap;rounded=0;fontSize=10;fontStyle=0;fontColor=#8F8F8F;" parent="1" vertex="1">
          <mxGeometry x="170" y="430" width="30" height="30" as="geometry" />
        </mxCell>
        <mxCell id="HmQEeG5PGhDaiVwMXJu5-19" value="2" style="text;html=1;strokeColor=#E6E6E6;fillColor=none;align=center;verticalAlign=middle;whiteSpace=wrap;rounded=0;fontSize=10;fontStyle=0;fontColor=#8F8F8F;" parent="1" vertex="1">
          <mxGeometry x="200" y="430" width="30" height="30" as="geometry" />
        </mxCell>
        <mxCell id="HmQEeG5PGhDaiVwMXJu5-20" value="3" style="text;html=1;strokeColor=#E6E6E6;fillColor=none;align=center;verticalAlign=middle;whiteSpace=wrap;rounded=0;fontSize=10;fontStyle=0;fontColor=#8F8F8F;" parent="1" vertex="1">
          <mxGeometry x="230" y="430" width="30" height="30" as="geometry" />
        </mxCell>
        <mxCell id="HmQEeG5PGhDaiVwMXJu5-21" value="4" style="text;html=1;strokeColor=#E6E6E6;fillColor=none;align=center;verticalAlign=middle;whiteSpace=wrap;rounded=0;fontSize=10;fontStyle=0;fontColor=#8F8F8F;" parent="1" vertex="1">
          <mxGeometry x="260" y="430" width="30" height="30" as="geometry" />
        </mxCell>
        <mxCell id="HmQEeG5PGhDaiVwMXJu5-22" value="5" style="text;html=1;strokeColor=#E6E6E6;fillColor=none;align=center;verticalAlign=middle;whiteSpace=wrap;rounded=0;fontSize=10;fontStyle=0;fontColor=#8F8F8F;" parent="1" vertex="1">
          <mxGeometry x="290" y="430" width="30" height="30" as="geometry" />
        </mxCell>
        <mxCell id="HmQEeG5PGhDaiVwMXJu5-23" value="6" style="text;html=1;strokeColor=#E6E6E6;fillColor=none;align=center;verticalAlign=middle;whiteSpace=wrap;rounded=0;fontSize=10;fontStyle=0;fontColor=#8F8F8F;" parent="1" vertex="1">
          <mxGeometry x="320" y="430" width="30" height="30" as="geometry" />
        </mxCell>
        <mxCell id="HmQEeG5PGhDaiVwMXJu5-24" value="7" style="text;html=1;strokeColor=#E6E6E6;fillColor=none;align=center;verticalAlign=middle;whiteSpace=wrap;rounded=0;fontSize=10;fontStyle=0;fontColor=#8F8F8F;" parent="1" vertex="1">
          <mxGeometry x="350" y="430" width="30" height="30" as="geometry" />
        </mxCell>
        <mxCell id="HmQEeG5PGhDaiVwMXJu5-25" value="8" style="text;html=1;strokeColor=#E6E6E6;fillColor=none;align=center;verticalAlign=middle;whiteSpace=wrap;rounded=0;fontSize=10;fontStyle=0;fontColor=#8F8F8F;" parent="1" vertex="1">
          <mxGeometry x="380" y="430" width="30" height="30" as="geometry" />
        </mxCell>
        <mxCell id="HmQEeG5PGhDaiVwMXJu5-26" value="9" style="text;html=1;strokeColor=#E6E6E6;fillColor=none;align=center;verticalAlign=middle;whiteSpace=wrap;rounded=0;fontSize=10;fontStyle=0;fontColor=#8F8F8F;" parent="1" vertex="1">
          <mxGeometry x="410" y="430" width="30" height="30" as="geometry" />
        </mxCell>
        <mxCell id="HmQEeG5PGhDaiVwMXJu5-27" value="10" style="text;html=1;strokeColor=#E6E6E6;fillColor=none;align=center;verticalAlign=middle;whiteSpace=wrap;rounded=0;fontSize=10;fontStyle=0;fontColor=#8F8F8F;" parent="1" vertex="1">
          <mxGeometry x="440" y="430" width="30" height="30" as="geometry" />
        </mxCell>
        <mxCell id="HmQEeG5PGhDaiVwMXJu5-28" value="11" style="text;html=1;strokeColor=#E6E6E6;fillColor=none;align=center;verticalAlign=middle;whiteSpace=wrap;rounded=0;fontSize=10;fontStyle=0;fontColor=#8F8F8F;" parent="1" vertex="1">
          <mxGeometry x="470" y="430" width="30" height="30" as="geometry" />
        </mxCell>
        <mxCell id="HmQEeG5PGhDaiVwMXJu5-29" value="12" style="text;html=1;strokeColor=#E6E6E6;fillColor=none;align=center;verticalAlign=middle;whiteSpace=wrap;rounded=0;fontSize=10;fontStyle=0;fontColor=#8F8F8F;" parent="1" vertex="1">
          <mxGeometry x="500" y="430" width="30" height="30" as="geometry" />
        </mxCell>
        <mxCell id="HmQEeG5PGhDaiVwMXJu5-30" value="13" style="text;html=1;strokeColor=#E6E6E6;fillColor=none;align=center;verticalAlign=middle;whiteSpace=wrap;rounded=0;fontSize=10;fontStyle=0;fontColor=#8F8F8F;" parent="1" vertex="1">
          <mxGeometry x="530" y="430" width="30" height="30" as="geometry" />
        </mxCell>
        <mxCell id="HmQEeG5PGhDaiVwMXJu5-31" value="14" style="text;html=1;strokeColor=#E6E6E6;fillColor=none;align=center;verticalAlign=middle;whiteSpace=wrap;rounded=0;fontSize=10;fontStyle=0;fontColor=#8F8F8F;" parent="1" vertex="1">
          <mxGeometry x="560" y="430" width="30" height="30" as="geometry" />
        </mxCell>
        <mxCell id="HmQEeG5PGhDaiVwMXJu5-32" value="15" style="text;html=1;strokeColor=#E6E6E6;fillColor=none;align=center;verticalAlign=middle;whiteSpace=wrap;rounded=0;fontSize=10;fontStyle=0;fontColor=#8F8F8F;" parent="1" vertex="1">
          <mxGeometry x="590" y="430" width="30" height="30" as="geometry" />
        </mxCell>
        <mxCell id="HmQEeG5PGhDaiVwMXJu5-33" value="&lt;div&gt;&lt;font&gt;x&lt;/font&gt;&lt;/div&gt;" style="text;html=1;strokeColor=default;fillColor=none;align=center;verticalAlign=middle;whiteSpace=wrap;rounded=0;fontFamily=Comic Sans MS;" parent="1" vertex="1">
          <mxGeometry x="200" y="280" width="60" height="30" as="geometry" />
        </mxCell>
        <mxCell id="HmQEeG5PGhDaiVwMXJu5-34" value="" style="endArrow=classic;html=1;rounded=0;exitX=0.5;exitY=1;exitDx=0;exitDy=0;entryX=0.5;entryY=0;entryDx=0;entryDy=0;" parent="1" source="HmQEeG5PGhDaiVwMXJu5-33" target="HmQEeG5PGhDaiVwMXJu5-3" edge="1">
          <mxGeometry width="50" height="50" relative="1" as="geometry">
            <mxPoint x="270" y="350" as="sourcePoint" />
            <mxPoint x="320" y="300" as="targetPoint" />
          </mxGeometry>
        </mxCell>
        <mxCell id="HmQEeG5PGhDaiVwMXJu5-35" value="h1(x)" style="edgeLabel;html=1;align=center;verticalAlign=middle;resizable=0;points=[];" parent="HmQEeG5PGhDaiVwMXJu5-34" vertex="1" connectable="0">
          <mxGeometry x="-0.0992" y="-2" relative="1" as="geometry">
            <mxPoint as="offset" />
          </mxGeometry>
        </mxCell>
        <mxCell id="HmQEeG5PGhDaiVwMXJu5-36" value="" style="endArrow=classic;html=1;rounded=0;exitX=0.5;exitY=1;exitDx=0;exitDy=0;entryX=0.5;entryY=0;entryDx=0;entryDy=0;" parent="1" source="HmQEeG5PGhDaiVwMXJu5-33" target="HmQEeG5PGhDaiVwMXJu5-7" edge="1">
          <mxGeometry width="50" height="50" relative="1" as="geometry">
            <mxPoint x="360" y="280" as="sourcePoint" />
            <mxPoint x="225" y="410" as="targetPoint" />
          </mxGeometry>
        </mxCell>
        <mxCell id="HmQEeG5PGhDaiVwMXJu5-37" value="h2(x)" style="edgeLabel;html=1;align=center;verticalAlign=middle;resizable=0;points=[];" parent="HmQEeG5PGhDaiVwMXJu5-36" vertex="1" connectable="0">
          <mxGeometry x="-0.0992" y="-2" relative="1" as="geometry">
            <mxPoint as="offset" />
          </mxGeometry>
        </mxCell>
        <mxCell id="HmQEeG5PGhDaiVwMXJu5-41" value="&lt;div&gt;&lt;font&gt;y&lt;/font&gt;&lt;/div&gt;" style="text;html=1;strokeColor=default;fillColor=none;align=center;verticalAlign=middle;whiteSpace=wrap;rounded=0;fontFamily=Comic Sans MS;" parent="1" vertex="1">
          <mxGeometry x="390" y="270" width="60" height="30" as="geometry" />
        </mxCell>
        <mxCell id="HmQEeG5PGhDaiVwMXJu5-42" value="" style="endArrow=classic;html=1;rounded=0;exitX=0.5;exitY=1;exitDx=0;exitDy=0;entryX=0.5;entryY=0;entryDx=0;entryDy=0;jumpStyle=arc;" parent="1" source="HmQEeG5PGhDaiVwMXJu5-41" target="HmQEeG5PGhDaiVwMXJu5-7" edge="1">
          <mxGeometry width="50" height="50" relative="1" as="geometry">
            <mxPoint x="460" y="340" as="sourcePoint" />
            <mxPoint x="405" y="390" as="targetPoint" />
          </mxGeometry>
        </mxCell>
        <mxCell id="HmQEeG5PGhDaiVwMXJu5-43" value="h1(y)" style="edgeLabel;html=1;align=center;verticalAlign=middle;resizable=0;points=[];" parent="HmQEeG5PGhDaiVwMXJu5-42" vertex="1" connectable="0">
          <mxGeometry x="-0.0992" y="-2" relative="1" as="geometry">
            <mxPoint x="8" y="-14" as="offset" />
          </mxGeometry>
        </mxCell>
        <mxCell id="HmQEeG5PGhDaiVwMXJu5-44" value="" style="endArrow=classic;html=1;rounded=0;exitX=0.5;exitY=1;exitDx=0;exitDy=0;entryX=0.5;entryY=0;entryDx=0;entryDy=0;" parent="1" source="HmQEeG5PGhDaiVwMXJu5-41" target="HmQEeG5PGhDaiVwMXJu5-11" edge="1">
          <mxGeometry width="50" height="50" relative="1" as="geometry">
            <mxPoint x="550" y="270" as="sourcePoint" />
            <mxPoint x="525" y="390" as="targetPoint" />
          </mxGeometry>
        </mxCell>
        <mxCell id="HmQEeG5PGhDaiVwMXJu5-45" value="h2(y)" style="edgeLabel;html=1;align=center;verticalAlign=middle;resizable=0;points=[];" parent="HmQEeG5PGhDaiVwMXJu5-44" vertex="1" connectable="0">
          <mxGeometry x="-0.0992" y="-2" relative="1" as="geometry">
            <mxPoint as="offset" />
          </mxGeometry>
        </mxCell>
        <mxCell id="HmQEeG5PGhDaiVwMXJu5-46" value="" style="endArrow=classic;html=1;rounded=0;exitX=0.5;exitY=1;exitDx=0;exitDy=0;entryX=0.5;entryY=0;entryDx=0;entryDy=0;" parent="1" source="HmQEeG5PGhDaiVwMXJu5-41" target="HmQEeG5PGhDaiVwMXJu5-15" edge="1">
          <mxGeometry width="50" height="50" relative="1" as="geometry">
            <mxPoint x="565" y="270" as="sourcePoint" />
            <mxPoint x="705" y="390" as="targetPoint" />
          </mxGeometry>
        </mxCell>
        <mxCell id="HmQEeG5PGhDaiVwMXJu5-47" value="h3(y)" style="edgeLabel;html=1;align=center;verticalAlign=middle;resizable=0;points=[];" parent="HmQEeG5PGhDaiVwMXJu5-46" vertex="1" connectable="0">
          <mxGeometry x="-0.0992" y="-2" relative="1" as="geometry">
            <mxPoint as="offset" />
          </mxGeometry>
        </mxCell>
        <mxCell id="HmQEeG5PGhDaiVwMXJu5-38" value="" style="endArrow=classic;html=1;rounded=0;exitX=0.5;exitY=1;exitDx=0;exitDy=0;entryX=0.5;entryY=0;entryDx=0;entryDy=0;jumpStyle=arc;" parent="1" source="HmQEeG5PGhDaiVwMXJu5-33" target="HmQEeG5PGhDaiVwMXJu5-13" edge="1">
          <mxGeometry width="50" height="50" relative="1" as="geometry">
            <mxPoint x="375" y="280" as="sourcePoint" />
            <mxPoint x="345" y="410" as="targetPoint" />
          </mxGeometry>
        </mxCell>
        <mxCell id="HmQEeG5PGhDaiVwMXJu5-39" value="h3(x)" style="edgeLabel;html=1;align=center;verticalAlign=middle;resizable=0;points=[];" parent="HmQEeG5PGhDaiVwMXJu5-38" vertex="1" connectable="0">
          <mxGeometry x="-0.0992" y="-2" relative="1" as="geometry">
            <mxPoint x="-31" y="-12" as="offset" />
          </mxGeometry>
        </mxCell>
        <mxCell id="HmQEeG5PGhDaiVwMXJu5-48" value="&lt;div&gt;&lt;font&gt;z&lt;/font&gt;&lt;/div&gt;" style="text;html=1;strokeColor=default;fillColor=none;align=center;verticalAlign=middle;whiteSpace=wrap;rounded=0;fontFamily=Comic Sans MS;" parent="1" vertex="1">
          <mxGeometry x="270" y="520" width="60" height="30" as="geometry" />
        </mxCell>
        <mxCell id="HmQEeG5PGhDaiVwMXJu5-49" value="&lt;br&gt;m=16,k=3的BloomFilter示意" style="text;html=1;strokeColor=#666666;fillColor=#f5f5f5;align=center;verticalAlign=middle;whiteSpace=wrap;rounded=0;fontStyle=1;fontColor=#333333;labelPosition=center;verticalLabelPosition=middle;horizontal=1;" parent="1" vertex="1">
          <mxGeometry x="225" y="210" width="280" height="30" as="geometry" />
        </mxCell>
        <mxCell id="HmQEeG5PGhDaiVwMXJu5-51" value="" style="endArrow=classic;html=1;rounded=0;exitX=0.5;exitY=0;exitDx=0;exitDy=0;entryX=0.5;entryY=0;entryDx=0;entryDy=0;dashed=1;" parent="1" source="HmQEeG5PGhDaiVwMXJu5-48" target="HmQEeG5PGhDaiVwMXJu5-19" edge="1">
          <mxGeometry width="50" height="50" relative="1" as="geometry">
            <mxPoint x="244.72" y="500" as="sourcePoint" />
            <mxPoint x="244.72" y="590" as="targetPoint" />
          </mxGeometry>
        </mxCell>
        <mxCell id="HmQEeG5PGhDaiVwMXJu5-52" value="h1(z)" style="edgeLabel;html=1;align=center;verticalAlign=middle;resizable=0;points=[];" parent="HmQEeG5PGhDaiVwMXJu5-51" vertex="1" connectable="0">
          <mxGeometry x="-0.0992" y="-2" relative="1" as="geometry">
            <mxPoint as="offset" />
          </mxGeometry>
        </mxCell>
        <mxCell id="HmQEeG5PGhDaiVwMXJu5-55" value="" style="endArrow=classic;html=1;rounded=0;exitX=0.5;exitY=0;exitDx=0;exitDy=0;entryX=0.5;entryY=0;entryDx=0;entryDy=0;dashed=1;" parent="1" source="HmQEeG5PGhDaiVwMXJu5-48" target="HmQEeG5PGhDaiVwMXJu5-23" edge="1">
          <mxGeometry width="50" height="50" relative="1" as="geometry">
            <mxPoint x="405" y="540" as="sourcePoint" />
            <mxPoint x="320" y="450" as="targetPoint" />
          </mxGeometry>
        </mxCell>
        <mxCell id="HmQEeG5PGhDaiVwMXJu5-56" value="h2(z)" style="edgeLabel;html=1;align=center;verticalAlign=middle;resizable=0;points=[];" parent="HmQEeG5PGhDaiVwMXJu5-55" vertex="1" connectable="0">
          <mxGeometry x="-0.0992" y="-2" relative="1" as="geometry">
            <mxPoint as="offset" />
          </mxGeometry>
        </mxCell>
        <mxCell id="HmQEeG5PGhDaiVwMXJu5-57" value="" style="endArrow=classic;html=1;rounded=0;exitX=0.5;exitY=0;exitDx=0;exitDy=0;entryX=0.5;entryY=0;entryDx=0;entryDy=0;dashed=1;" parent="1" source="HmQEeG5PGhDaiVwMXJu5-48" target="HmQEeG5PGhDaiVwMXJu5-27" edge="1">
          <mxGeometry width="50" height="50" relative="1" as="geometry">
            <mxPoint x="310" y="530" as="sourcePoint" />
            <mxPoint x="345" y="440" as="targetPoint" />
          </mxGeometry>
        </mxCell>
        <mxCell id="HmQEeG5PGhDaiVwMXJu5-58" value="h3(z)" style="edgeLabel;html=1;align=center;verticalAlign=middle;resizable=0;points=[];" parent="HmQEeG5PGhDaiVwMXJu5-57" vertex="1" connectable="0">
          <mxGeometry x="-0.0992" y="-2" relative="1" as="geometry">
            <mxPoint as="offset" />
          </mxGeometry>
        </mxCell>
        <mxCell id="VGjo6MBFAL4CZYGg2Dby-1" value="如果判断z是否存在, 则会误判" style="text;html=1;strokeColor=#b85450;fillColor=#f8cecc;align=center;verticalAlign=middle;whiteSpace=wrap;rounded=0;" vertex="1" parent="1">
          <mxGeometry x="330" y="520" width="115" height="30" as="geometry" />
        </mxCell>
      </root>
    </mxGraphModel>
  </diagram>
</mxfile>
